<svg width="60" height="60" viewBox="0 0 60 60" fill="none" xmlns="http://www.w3.org/2000/svg">
<path d="M57.6051 18.3217C54.4418 10.9467 49.0663 5.58305 41.6297 2.41139C37.9128 0.826193 34.0188 0.0164871 29.9507 0.0164871C25.8832 0.0164871 22.0179 0.818546 18.3052 2.41139C10.9302 5.57462 5.53088 10.9348 2.36196 18.3217C0.774019 22.0225 0 25.8996 0 29.9671C0 34.0353 0.774019 37.9446 2.36196 41.6462C5.53088 49.033 10.9309 54.4254 18.3052 57.5894C22.0186 59.1823 25.8831 59.9835 29.9507 59.9835C34.0182 59.9835 37.9128 59.1738 41.6291 57.5894C49.0657 54.4176 54.4412 49.0205 57.6052 41.6462C59.1979 37.9328 60 34.0353 60 29.9671C60 25.8996 59.1986 22.035 57.6051 18.3217ZM52.8161 43.2209C50.4611 47.2596 47.2348 50.4636 43.1715 52.8326C39.1327 55.1875 34.7076 56.3752 29.9514 56.3752C26.3759 56.3752 22.9641 55.6866 19.7161 54.2757C16.4681 52.8655 13.6638 51.0116 11.3179 48.6664C8.97206 46.3205 7.1049 43.4888 5.70873 40.2353C4.31667 36.9936 3.64206 33.5433 3.64206 29.9672C3.64206 25.2103 4.81078 20.8076 7.15255 16.78C9.50265 12.7378 12.7296 9.53031 16.7642 7.16825C20.7981 4.80629 25.1946 3.62492 29.9507 3.62492C34.7076 3.62492 39.132 4.81325 43.1708 7.16825C47.2341 9.53727 50.4534 12.7446 52.8154 16.7799C55.1774 20.8145 56.358 25.2103 56.358 29.9671C56.358 34.724 55.1851 39.1568 52.8161 43.2209Z" fill="black"/>
<path d="M31.8535 29.7047V12.7117C31.8535 11.6948 30.9675 10.8746 29.9506 10.8746C28.9995 10.8746 28.1464 11.6948 28.1464 12.7117V29.9671C28.1464 30 28.2121 30.1316 28.2121 30.2296C28.1464 30.8202 28.3109 31.3123 28.7042 31.7063L38.5133 41.5147C39.1697 42.1711 40.3832 42.1711 41.0391 41.5147C41.7934 40.7603 41.7438 39.6657 41.0391 38.956L31.8535 29.7047Z" fill="black"/>
</svg>
