<svg width="60" height="60" viewBox="0 0 60 60" fill="none" xmlns="http://www.w3.org/2000/svg">
<g clip-path="url(#clip0)">
<path d="M56.0104 30.777C55.769 30.283 55.769 29.7165 56.0104 29.2227L58.2482 24.6448C59.4941 22.0959 58.5069 19.0578 56.0008 17.7281L51.4996 15.3398C51.014 15.0822 50.6811 14.6238 50.586 14.0825L49.7057 9.06352C49.2155 6.26909 46.6306 4.39128 43.822 4.78866L38.7768 5.50233C38.2322 5.57921 37.6937 5.40413 37.2987 5.02198L33.6365 1.47919C31.5973 -0.493534 28.4028 -0.493651 26.3637 1.47919L22.7014 5.02234C22.3063 5.4046 21.7678 5.57932 21.2233 5.50268L16.1781 4.78902C13.3685 4.3914 10.7846 6.26944 10.2944 9.06388L9.41408 14.0826C9.31904 14.624 8.98611 15.0824 8.50061 15.3401L3.99946 17.7283C1.4933 19.0579 0.506121 22.0962 1.75205 24.6452L3.98973 29.2229C4.23114 29.7169 4.23114 30.2834 3.98973 30.7772L1.75193 35.355C0.506003 37.9039 1.49319 40.942 3.99934 42.2717L8.50049 44.66C8.98611 44.9175 9.31904 45.376 9.41408 45.9173L10.2944 50.9363C10.7406 53.4802 12.9219 55.2642 15.4289 55.264C15.6758 55.264 15.9264 55.2466 16.1782 55.211L21.2235 54.4973C21.7676 54.4201 22.3064 54.5955 22.7015 54.9777L26.3637 58.5205C27.3835 59.507 28.6915 60.0001 30.0001 60C31.3082 59.9999 32.6171 59.5067 33.6364 58.5205L37.2987 54.9777C37.6938 54.5955 38.2324 54.4209 38.7768 54.4973L43.822 55.211C46.6319 55.6085 49.2155 53.7306 49.7057 50.9361L50.5861 45.9174C50.6812 45.376 51.0141 44.9177 51.4996 44.66L56.0008 42.2717C58.5069 40.9421 59.4941 37.9038 58.2482 35.3549L56.0104 30.777ZM54.3788 39.2146L49.8776 41.6029C48.4426 42.3645 47.4583 43.719 47.1776 45.3193L46.2973 50.3381C46.1315 51.2836 45.2574 51.9186 44.3067 51.7845L39.2614 51.0708C37.6525 50.8429 36.0604 51.3607 34.8926 52.4903L31.2303 56.033C30.5405 56.7002 29.4597 56.7002 28.7697 56.033L25.1075 52.4902C24.1206 51.5354 22.8303 51.0181 21.4834 51.0181C21.2366 51.0181 20.9878 51.0354 20.7387 51.0707L15.6934 51.7843C14.7435 51.9186 13.8687 51.2835 13.7028 50.338L12.8223 45.319C12.5416 43.7187 11.5574 42.3642 10.1222 41.6028L5.62109 39.2145C4.77313 38.7647 4.43914 37.7368 4.86067 36.8744L7.09846 32.2965C7.8119 30.8368 7.8119 29.1627 7.09846 27.703L4.86067 23.1251C4.43914 22.2628 4.77313 21.2349 5.62109 20.785L10.1222 18.3968C11.5573 17.6352 12.5416 16.2807 12.8222 14.6804L13.7025 9.66153C13.8685 8.71607 14.7424 8.08091 15.6932 8.21521L20.7384 8.92888C22.3468 9.15657 23.9395 8.63896 25.1073 7.50939L28.7696 3.9666C29.4593 3.29934 30.5402 3.29934 31.2302 3.9666L34.8924 7.50939C36.0601 8.63907 37.6526 9.15657 39.2612 8.92888L44.3064 8.21521C45.2565 8.0808 46.1313 8.71607 46.2971 9.66153L47.1774 14.6805C47.4582 16.2808 48.4423 17.6354 49.8775 18.3968L54.3787 20.785C55.2266 21.2349 55.5606 22.2628 55.1391 23.1251L52.9013 27.7029C52.1878 29.1625 52.1878 30.8368 52.9013 32.2964L55.1391 36.8742C55.5607 37.7368 55.2267 38.7648 54.3788 39.2146Z" fill="black"/>
<path d="M42.6426 17.3572C41.9671 16.6815 40.8714 16.6815 40.1957 17.3572L17.3572 40.1958C16.6815 40.8715 16.6815 41.9671 17.3572 42.6428C17.6951 42.9806 18.1379 43.1496 18.5807 43.1496C19.0234 43.1496 19.4664 42.9807 19.8041 42.6428L42.6425 19.8043C43.3185 19.1285 43.3185 18.0331 42.6426 17.3572Z" fill="black"/>
<path d="M23.0789 14.4276C19.5806 14.4276 16.7345 17.2737 16.7345 20.7719C16.7345 24.2702 19.5806 27.1163 23.0789 27.1163C26.5772 27.1163 29.4233 24.2702 29.4233 20.7719C29.4233 17.2737 26.5772 14.4276 23.0789 14.4276ZM23.0789 23.6557C21.4888 23.6557 20.1952 22.3621 20.1952 20.7718C20.1952 19.1817 21.4888 17.8881 23.0789 17.8881C24.669 17.8881 25.9628 19.1817 25.9628 20.7718C25.9626 22.3621 24.669 23.6557 23.0789 23.6557Z" fill="black"/>
<path d="M36.921 32.8838C33.4227 32.8838 30.5766 35.7299 30.5766 39.2282C30.5766 42.7264 33.4227 45.5726 36.921 45.5726C40.4192 45.5726 43.2654 42.7264 43.2654 39.2282C43.2654 35.7299 40.4192 32.8838 36.921 32.8838ZM36.921 42.1119C35.3309 42.1119 34.0371 40.8183 34.0371 39.2282C34.0371 37.6381 35.3308 36.3444 36.921 36.3444C38.5111 36.3444 39.8047 37.6381 39.8047 39.2282C39.8047 40.8183 38.5111 42.1119 36.921 42.1119Z" fill="black"/>
</g>
<defs>
<clipPath id="clip0">
<rect width="60" height="60" fill="white"/>
</clipPath>
</defs>
</svg>
